<svg width="32" height="32" viewBox="0 0 32 32" fill="none" xmlns="http://www.w3.org/2000/svg">
<path d="M5.37891 23.8017C6.23538 23.8017 6.92968 23.1074 6.92968 22.2509C6.92968 21.3944 6.23538 20.7001 5.37891 20.7001C4.52243 20.7001 3.82812 21.3944 3.82812 22.2509C3.82812 23.1074 4.52243 23.8017 5.37891 23.8017Z" fill="url(#paint0_radial_0_324)"/>
<path d="M26.6328 23.8134C27.4893 23.8134 28.1836 23.119 28.1836 22.2626C28.1836 21.4061 27.4893 20.7118 26.6328 20.7118C25.7763 20.7118 25.082 21.4061 25.082 22.2626C25.082 23.119 25.7763 23.8134 26.6328 23.8134Z" fill="url(#paint1_radial_0_324)"/>
<path d="M26.6328 23.8134C27.4893 23.8134 28.1836 23.119 28.1836 22.2626C28.1836 21.4061 27.4893 20.7118 26.6328 20.7118C25.7763 20.7118 25.082 21.4061 25.082 22.2626C25.082 23.119 25.7763 23.8134 26.6328 23.8134Z" fill="url(#paint2_radial_0_324)"/>
<path d="M9.00781 12.0829C8.40781 12.9829 7.97135 14.2079 7.82031 14.6766L10.1641 16.3641L11.9531 14.0985C11.7422 13.773 11.2406 13.0477 10.9531 12.6727C10.6656 12.2977 10.2318 11.8394 10.0547 11.6571L9.00781 12.0829Z" fill="url(#paint3_radial_0_324)"/>
<path d="M9.00781 12.0829C8.40781 12.9829 7.97135 14.2079 7.82031 14.6766L10.1641 16.3641L11.9531 14.0985C11.7422 13.773 11.2406 13.0477 10.9531 12.6727C10.6656 12.2977 10.2318 11.8394 10.0547 11.6571L9.00781 12.0829Z" fill="url(#paint4_radial_0_324)"/>
<path d="M22.9922 12.0829C23.5922 12.9829 24.0286 14.2079 24.1797 14.6766L21.8359 16.3641L20.0469 14.0985C20.2578 13.773 20.7594 13.0477 21.0469 12.6727C21.3344 12.2977 21.7682 11.8394 21.9453 11.6571L22.9922 12.0829Z" fill="url(#paint5_radial_0_324)"/>
<path d="M22.9922 12.0829C23.5922 12.9829 24.0286 14.2079 24.1797 14.6766L21.8359 16.3641L20.0469 14.0985C20.2578 13.773 20.7594 13.0477 21.0469 12.6727C21.3344 12.2977 21.7682 11.8394 21.9453 11.6571L22.9922 12.0829Z" fill="url(#paint6_radial_0_324)"/>
<path d="M22.9922 12.0829C23.5922 12.9829 24.0286 14.2079 24.1797 14.6766L21.8359 16.3641L20.0469 14.0985C20.2578 13.773 20.7594 13.0477 21.0469 12.6727C21.3344 12.2977 21.7682 11.8394 21.9453 11.6571L22.9922 12.0829Z" fill="url(#paint7_radial_0_324)"/>
<g filter="url(#filter0_ii_0_324)">
<path d="M3.125 12.1532L6.23123 27.3119C6.38376 28.0563 7.03881 28.5907 7.79866 28.5907H24.2013C24.9612 28.5907 25.6162 28.0563 25.7688 27.3119L28.875 12.1532L27.8834 11.6688C26.3986 12.7469 23.2914 14.9579 22.4887 15.4423C21.8486 15.8285 21.2607 15.199 21.139 15.0204C20.0215 13.3798 18.3172 10.9919 17.6797 10.1532C17.0265 9.29382 16.2886 8.86934 16 8.83289C15.7114 8.86934 14.9735 9.29382 14.3203 10.1532C13.6828 10.9919 11.9785 13.3798 10.861 15.0204C10.7393 15.199 10.1514 15.8285 9.51135 15.4423C8.70863 14.9579 5.60137 12.7469 4.1166 11.6688L3.125 12.1532Z" fill="url(#paint8_linear_0_324)"/>
<path d="M3.125 12.1532L6.23123 27.3119C6.38376 28.0563 7.03881 28.5907 7.79866 28.5907H24.2013C24.9612 28.5907 25.6162 28.0563 25.7688 27.3119L28.875 12.1532L27.8834 11.6688C26.3986 12.7469 23.2914 14.9579 22.4887 15.4423C21.8486 15.8285 21.2607 15.199 21.139 15.0204C20.0215 13.3798 18.3172 10.9919 17.6797 10.1532C17.0265 9.29382 16.2886 8.86934 16 8.83289C15.7114 8.86934 14.9735 9.29382 14.3203 10.1532C13.6828 10.9919 11.9785 13.3798 10.861 15.0204C10.7393 15.199 10.1514 15.8285 9.51135 15.4423C8.70863 14.9579 5.60137 12.7469 4.1166 11.6688L3.125 12.1532Z" fill="url(#paint9_radial_0_324)"/>
</g>
<path d="M3.125 12.1532L6.23123 27.3119C6.38376 28.0563 7.03881 28.5907 7.79866 28.5907H24.2013C24.9612 28.5907 25.6162 28.0563 25.7688 27.3119L28.875 12.1532L27.8834 11.6688C26.3986 12.7469 23.2914 14.9579 22.4887 15.4423C21.8486 15.8285 21.2607 15.199 21.139 15.0204C20.0215 13.3798 18.3172 10.9919 17.6797 10.1532C17.0265 9.29382 16.2886 8.86934 16 8.83289C15.7114 8.86934 14.9735 9.29382 14.3203 10.1532C13.6828 10.9919 11.9785 13.3798 10.861 15.0204C10.7393 15.199 10.1514 15.8285 9.51135 15.4423C8.70863 14.9579 5.60137 12.7469 4.1166 11.6688L3.125 12.1532Z" fill="url(#paint10_linear_0_324)"/>
<path d="M3.125 12.1532L6.23123 27.3119C6.38376 28.0563 7.03881 28.5907 7.79866 28.5907H24.2013C24.9612 28.5907 25.6162 28.0563 25.7688 27.3119L28.875 12.1532L27.8834 11.6688C26.3986 12.7469 23.2914 14.9579 22.4887 15.4423C21.8486 15.8285 21.2607 15.199 21.139 15.0204C20.0215 13.3798 18.3172 10.9919 17.6797 10.1532C17.0265 9.29382 16.2886 8.86934 16 8.83289C15.7114 8.86934 14.9735 9.29382 14.3203 10.1532C13.6828 10.9919 11.9785 13.3798 10.861 15.0204C10.7393 15.199 10.1514 15.8285 9.51135 15.4423C8.70863 14.9579 5.60137 12.7469 4.1166 11.6688L3.125 12.1532Z" fill="url(#paint11_linear_0_324)"/>
<path d="M3.125 12.1532L6.23123 27.3119C6.38376 28.0563 7.03881 28.5907 7.79866 28.5907H24.2013C24.9612 28.5907 25.6162 28.0563 25.7688 27.3119L28.875 12.1532L27.8834 11.6688C26.3986 12.7469 23.2914 14.9579 22.4887 15.4423C21.8486 15.8285 21.2607 15.199 21.139 15.0204C20.0215 13.3798 18.3172 10.9919 17.6797 10.1532C17.0265 9.29382 16.2886 8.86934 16 8.83289C15.7114 8.86934 14.9735 9.29382 14.3203 10.1532C13.6828 10.9919 11.9785 13.3798 10.861 15.0204C10.7393 15.199 10.1514 15.8285 9.51135 15.4423C8.70863 14.9579 5.60137 12.7469 4.1166 11.6688L3.125 12.1532Z" fill="url(#paint12_linear_0_324)"/>
<path d="M3.125 12.1532L6.23123 27.3119C6.38376 28.0563 7.03881 28.5907 7.79866 28.5907H24.2013C24.9612 28.5907 25.6162 28.0563 25.7688 27.3119L28.875 12.1532L27.8834 11.6688C26.3986 12.7469 23.2914 14.9579 22.4887 15.4423C21.8486 15.8285 21.2607 15.199 21.139 15.0204C20.0215 13.3798 18.3172 10.9919 17.6797 10.1532C17.0265 9.29382 16.2886 8.86934 16 8.83289C15.7114 8.86934 14.9735 9.29382 14.3203 10.1532C13.6828 10.9919 11.9785 13.3798 10.861 15.0204C10.7393 15.199 10.1514 15.8285 9.51135 15.4423C8.70863 14.9579 5.60137 12.7469 4.1166 11.6688L3.125 12.1532Z" fill="url(#paint13_radial_0_324)"/>
<path d="M3.125 12.1532L6.23123 27.3119C6.38376 28.0563 7.03881 28.5907 7.79866 28.5907H24.2013C24.9612 28.5907 25.6162 28.0563 25.7688 27.3119L28.875 12.1532L27.8834 11.6688C26.3986 12.7469 23.2914 14.9579 22.4887 15.4423C21.8486 15.8285 21.2607 15.199 21.139 15.0204C20.0215 13.3798 18.3172 10.9919 17.6797 10.1532C17.0265 9.29382 16.2886 8.86934 16 8.83289C15.7114 8.86934 14.9735 9.29382 14.3203 10.1532C13.6828 10.9919 11.9785 13.3798 10.861 15.0204C10.7393 15.199 10.1514 15.8285 9.51135 15.4423C8.70863 14.9579 5.60137 12.7469 4.1166 11.6688L3.125 12.1532Z" fill="url(#paint14_radial_0_324)"/>
<path d="M3.125 12.1532L6.23123 27.3119C6.38376 28.0563 7.03881 28.5907 7.79866 28.5907H24.2013C24.9612 28.5907 25.6162 28.0563 25.7688 27.3119L28.875 12.1532L27.8834 11.6688C26.3986 12.7469 23.2914 14.9579 22.4887 15.4423C21.8486 15.8285 21.2607 15.199 21.139 15.0204C20.0215 13.3798 18.3172 10.9919 17.6797 10.1532C17.0265 9.29382 16.2886 8.86934 16 8.83289C15.7114 8.86934 14.9735 9.29382 14.3203 10.1532C13.6828 10.9919 11.9785 13.3798 10.861 15.0204C10.7393 15.199 10.1514 15.8285 9.51135 15.4423C8.70863 14.9579 5.60137 12.7469 4.1166 11.6688L3.125 12.1532Z" fill="url(#paint15_radial_0_324)"/>
<g filter="url(#filter1_di_0_324)">
<path d="M23.7793 22.7426C23.5142 23.557 22.662 23.9652 21.8476 23.7001C21.2344 23.4501 20.9692 22.7489 21.2344 21.9345C21.4995 21.1201 22.3344 20.6528 22.8398 20.8173C23.6542 21.0824 24.0445 21.9282 23.7793 22.7426Z" fill="url(#paint16_radial_0_324)"/>
<path d="M23.7793 22.7426C23.5142 23.557 22.662 23.9652 21.8476 23.7001C21.2344 23.4501 20.9692 22.7489 21.2344 21.9345C21.4995 21.1201 22.3344 20.6528 22.8398 20.8173C23.6542 21.0824 24.0445 21.9282 23.7793 22.7426Z" fill="url(#paint17_radial_0_324)"/>
</g>
<g filter="url(#filter2_di_0_324)">
<path d="M8.29706 22.7426C8.56218 23.557 9.41435 23.9652 10.2288 23.7001C10.8421 23.4501 11.1072 22.7489 10.8421 21.9345C10.5769 21.1201 9.742 20.6528 9.23657 20.8173C8.42217 21.0824 8.03194 21.9282 8.29706 22.7426Z" fill="url(#paint18_radial_0_324)"/>
<path d="M8.29706 22.7426C8.56218 23.557 9.41435 23.9652 10.2288 23.7001C10.8421 23.4501 11.1072 22.7489 10.8421 21.9345C10.5769 21.1201 9.742 20.6528 9.23657 20.8173C8.42217 21.0824 8.03194 21.9282 8.29706 22.7426Z" fill="url(#paint19_radial_0_324)"/>
</g>
<path d="M4.92188 11.9247C4.92188 12.6927 4.29927 13.3153 3.53126 13.3153C2.76324 13.3153 2.14062 12.6927 2.14062 11.9247C2.14062 11.1567 2.76324 10.5341 3.53126 10.5341C4.29927 10.5341 4.92188 11.1567 4.92188 11.9247Z" fill="url(#paint20_radial_0_324)"/>
<path d="M4.92188 11.9247C4.92188 12.6927 4.29927 13.3153 3.53126 13.3153C2.76324 13.3153 2.14062 12.6927 2.14062 11.9247C2.14062 11.1567 2.76324 10.5341 3.53126 10.5341C4.29927 10.5341 4.92188 11.1567 4.92188 11.9247Z" fill="url(#paint21_radial_0_324)"/>
<path d="M4.92188 11.9247C4.92188 12.6927 4.29927 13.3153 3.53126 13.3153C2.76324 13.3153 2.14062 12.6927 2.14062 11.9247C2.14062 11.1567 2.76324 10.5341 3.53126 10.5341C4.29927 10.5341 4.92188 11.1567 4.92188 11.9247Z" fill="url(#paint22_radial_0_324)"/>
<path d="M4.92188 11.9247C4.92188 12.6927 4.29927 13.3153 3.53126 13.3153C2.76324 13.3153 2.14062 12.6927 2.14062 11.9247C2.14062 11.1567 2.76324 10.5341 3.53126 10.5341C4.29927 10.5341 4.92188 11.1567 4.92188 11.9247Z" fill="url(#paint23_radial_0_324)"/>
<path d="M10.2807 12.1797C10.6924 11.9383 10.9688 11.4911 10.9688 10.9794C10.9688 10.2113 10.3461 9.58875 9.57812 9.58875C8.8101 9.58875 8.1875 10.2113 8.1875 10.9794C8.1875 11.5115 8.48637 11.9738 8.9254 12.2076C9.01248 12.173 9.17138 12.1388 9.34375 12.1884C9.55805 12.2501 9.91001 12.3279 10.2807 12.1797Z" fill="url(#paint24_radial_0_324)"/>
<path d="M10.2807 12.1797C10.6924 11.9383 10.9688 11.4911 10.9688 10.9794C10.9688 10.2113 10.3461 9.58875 9.57812 9.58875C8.8101 9.58875 8.1875 10.2113 8.1875 10.9794C8.1875 11.5115 8.48637 11.9738 8.9254 12.2076C9.01248 12.173 9.17138 12.1388 9.34375 12.1884C9.55805 12.2501 9.91001 12.3279 10.2807 12.1797Z" fill="url(#paint25_radial_0_324)"/>
<path d="M10.2807 12.1797C10.6924 11.9383 10.9688 11.4911 10.9688 10.9794C10.9688 10.2113 10.3461 9.58875 9.57812 9.58875C8.8101 9.58875 8.1875 10.2113 8.1875 10.9794C8.1875 11.5115 8.48637 11.9738 8.9254 12.2076C9.01248 12.173 9.17138 12.1388 9.34375 12.1884C9.55805 12.2501 9.91001 12.3279 10.2807 12.1797Z" fill="url(#paint26_radial_0_324)"/>
<path d="M10.2807 12.1797C10.6924 11.9383 10.9688 11.4911 10.9688 10.9794C10.9688 10.2113 10.3461 9.58875 9.57812 9.58875C8.8101 9.58875 8.1875 10.2113 8.1875 10.9794C8.1875 11.5115 8.48637 11.9738 8.9254 12.2076C9.01248 12.173 9.17138 12.1388 9.34375 12.1884C9.55805 12.2501 9.91001 12.3279 10.2807 12.1797Z" fill="url(#paint27_radial_0_324)"/>
<g filter="url(#filter3_i_0_324)">
<path d="M21.7193 12.1797C21.3076 11.9383 21.0312 11.4911 21.0312 10.9794C21.0312 10.2113 21.6539 9.58875 22.4219 9.58875C23.1899 9.58875 23.8125 10.2113 23.8125 10.9794C23.8125 11.5115 23.5136 11.9738 23.0746 12.2076C22.9875 12.173 22.8286 12.1388 22.6563 12.1884C22.4419 12.2501 22.09 12.3279 21.7193 12.1797Z" fill="url(#paint28_radial_0_324)"/>
<path d="M21.7193 12.1797C21.3076 11.9383 21.0312 11.4911 21.0312 10.9794C21.0312 10.2113 21.6539 9.58875 22.4219 9.58875C23.1899 9.58875 23.8125 10.2113 23.8125 10.9794C23.8125 11.5115 23.5136 11.9738 23.0746 12.2076C22.9875 12.173 22.8286 12.1388 22.6563 12.1884C22.4419 12.2501 22.09 12.3279 21.7193 12.1797Z" fill="url(#paint29_radial_0_324)"/>
</g>
<g filter="url(#filter4_di_0_324)">
<path d="M16.0382 24.7938C17.4012 24.7938 18.5061 23.6889 18.5061 22.3259C18.5061 20.9629 17.4012 19.858 16.0382 19.858C14.6752 19.858 13.5703 20.9629 13.5703 22.3259C13.5703 23.6889 14.6752 24.7938 16.0382 24.7938Z" fill="url(#paint30_radial_0_324)"/>
</g>
<g filter="url(#filter5_f_0_324)">
<path d="M16.2109 9.35514C16.3828 9.3343 16.8234 9.42389 17.2109 9.94889C17.5984 10.4739 19.9557 13.8343 21.0859 15.4489C21.3047 15.7874 21.9516 16.3208 22.7891 15.7458C23.6266 15.1708 26.3203 13.2209 27.3359 12.5438" stroke="url(#paint31_linear_0_324)" stroke-width="0.15"/>
<path d="M16.2109 9.35514C16.3828 9.3343 16.8234 9.42389 17.2109 9.94889C17.5984 10.4739 19.9557 13.8343 21.0859 15.4489C21.3047 15.7874 21.9516 16.3208 22.7891 15.7458C23.6266 15.1708 26.3203 13.2209 27.3359 12.5438" stroke="url(#paint32_radial_0_324)" stroke-width="0.15"/>
</g>
<path d="M15.9961 9.44616C16.9906 9.44616 17.7969 8.63993 17.7969 7.64538C17.7969 6.65084 16.9906 5.8446 15.9961 5.8446C15.0015 5.8446 14.1953 6.65084 14.1953 7.64538C14.1953 8.63993 15.0015 9.44616 15.9961 9.44616Z" fill="url(#paint33_radial_0_324)"/>
<path d="M15.9961 9.44616C16.9906 9.44616 17.7969 8.63993 17.7969 7.64538C17.7969 6.65084 16.9906 5.8446 15.9961 5.8446C15.0015 5.8446 14.1953 6.65084 14.1953 7.64538C14.1953 8.63993 15.0015 9.44616 15.9961 9.44616Z" fill="url(#paint34_radial_0_324)"/>
<path d="M15.9961 9.44616C16.9906 9.44616 17.7969 8.63993 17.7969 7.64538C17.7969 6.65084 16.9906 5.8446 15.9961 5.8446C15.0015 5.8446 14.1953 6.65084 14.1953 7.64538C14.1953 8.63993 15.0015 9.44616 15.9961 9.44616Z" fill="url(#paint35_radial_0_324)"/>
<path d="M15.9961 9.44616C16.9906 9.44616 17.7969 8.63993 17.7969 7.64538C17.7969 6.65084 16.9906 5.8446 15.9961 5.8446C15.0015 5.8446 14.1953 6.65084 14.1953 7.64538C14.1953 8.63993 15.0015 9.44616 15.9961 9.44616Z" fill="url(#paint36_radial_0_324)"/>
<path d="M29.9219 11.9247C29.9219 12.6927 29.2993 13.3153 28.5312 13.3153C27.7632 13.3153 27.1406 12.6927 27.1406 11.9247C27.1406 11.1567 27.7632 10.5341 28.5312 10.5341C29.2993 10.5341 29.9219 11.1567 29.9219 11.9247Z" fill="url(#paint37_radial_0_324)"/>
<path d="M29.9219 11.9247C29.9219 12.6927 29.2993 13.3153 28.5312 13.3153C27.7632 13.3153 27.1406 12.6927 27.1406 11.9247C27.1406 11.1567 27.7632 10.5341 28.5312 10.5341C29.2993 10.5341 29.9219 11.1567 29.9219 11.9247Z" fill="url(#paint38_radial_0_324)"/>
<path d="M29.9219 11.9247C29.9219 12.6927 29.2993 13.3153 28.5312 13.3153C27.7632 13.3153 27.1406 12.6927 27.1406 11.9247C27.1406 11.1567 27.7632 10.5341 28.5312 10.5341C29.2993 10.5341 29.9219 11.1567 29.9219 11.9247Z" fill="url(#paint39_radial_0_324)"/>
<path d="M29.9219 11.9247C29.9219 12.6927 29.2993 13.3153 28.5312 13.3153C27.7632 13.3153 27.1406 12.6927 27.1406 11.9247C27.1406 11.1567 27.7632 10.5341 28.5312 10.5341C29.2993 10.5341 29.9219 11.1567 29.9219 11.9247Z" fill="url(#paint40_radial_0_324)"/>
<defs>
<filter id="filter0_ii_0_324" x="2.725" y="8.73289" width="26.55" height="19.8578" filterUnits="userSpaceOnUse" color-interpolation-filters="sRGB">
<feFlood flood-opacity="0" result="BackgroundImageFix"/>
<feBlend mode="normal" in="SourceGraphic" in2="BackgroundImageFix" result="shape"/>
<feColorMatrix in="SourceAlpha" type="matrix" values="0 0 0 0 0 0 0 0 0 0 0 0 0 0 0 0 0 0 127 0" result="hardAlpha"/>
<feOffset dx="0.4" dy="-0.1"/>
<feGaussianBlur stdDeviation="0.25"/>
<feComposite in2="hardAlpha" operator="arithmetic" k2="-1" k3="1"/>
<feColorMatrix type="matrix" values="0 0 0 0 0.803922 0 0 0 0 0.580392 0 0 0 0 0.262745 0 0 0 1 0"/>
<feBlend mode="normal" in2="shape" result="effect1_innerShadow_0_324"/>
<feColorMatrix in="SourceAlpha" type="matrix" values="0 0 0 0 0 0 0 0 0 0 0 0 0 0 0 0 0 0 127 0" result="hardAlpha"/>
<feOffset dx="-0.4" dy="-0.1"/>
<feGaussianBlur stdDeviation="0.25"/>
<feComposite in2="hardAlpha" operator="arithmetic" k2="-1" k3="1"/>
<feColorMatrix type="matrix" values="0 0 0 0 0.894118 0 0 0 0 0.686275 0 0 0 0 0.301961 0 0 0 1 0"/>
<feBlend mode="normal" in2="effect1_innerShadow_0_324" result="effect2_innerShadow_0_324"/>
</filter>
<filter id="filter1_di_0_324" x="20.1319" y="20.2845" width="4.22989" height="4.49603" filterUnits="userSpaceOnUse" color-interpolation-filters="sRGB">
<feFlood flood-opacity="0" result="BackgroundImageFix"/>
<feColorMatrix in="SourceAlpha" type="matrix" values="0 0 0 0 0 0 0 0 0 0 0 0 0 0 0 0 0 0 127 0" result="hardAlpha"/>
<feOffset dx="-0.25" dy="0.25"/>
<feGaussianBlur stdDeviation="0.375"/>
<feComposite in2="hardAlpha" operator="out"/>
<feColorMatrix type="matrix" values="0 0 0 0 1 0 0 0 0 0.54902 0 0 0 0 0.305882 0 0 0 1 0"/>
<feBlend mode="normal" in2="BackgroundImageFix" result="effect1_dropShadow_0_324"/>
<feBlend mode="normal" in="SourceGraphic" in2="effect1_dropShadow_0_324" result="shape"/>
<feColorMatrix in="SourceAlpha" type="matrix" values="0 0 0 0 0 0 0 0 0 0 0 0 0 0 0 0 0 0 127 0" result="hardAlpha"/>
<feOffset dx="0.15" dy="-0.15"/>
<feGaussianBlur stdDeviation="0.25"/>
<feComposite in2="hardAlpha" operator="arithmetic" k2="-1" k3="1"/>
<feColorMatrix type="matrix" values="0 0 0 0 0.984314 0 0 0 0 0.219608 0 0 0 0 0.254902 0 0 0 1 0"/>
<feBlend mode="normal" in2="shape" result="effect2_innerShadow_0_324"/>
</filter>
<filter id="filter2_di_0_324" x="7.2146" y="20.2845" width="4.22992" height="4.49603" filterUnits="userSpaceOnUse" color-interpolation-filters="sRGB">
<feFlood flood-opacity="0" result="BackgroundImageFix"/>
<feColorMatrix in="SourceAlpha" type="matrix" values="0 0 0 0 0 0 0 0 0 0 0 0 0 0 0 0 0 0 127 0" result="hardAlpha"/>
<feOffset dx="-0.25" dy="0.25"/>
<feGaussianBlur stdDeviation="0.375"/>
<feComposite in2="hardAlpha" operator="out"/>
<feColorMatrix type="matrix" values="0 0 0 0 0.905882 0 0 0 0 0.439216 0 0 0 0 0.278431 0 0 0 1 0"/>
<feBlend mode="normal" in2="BackgroundImageFix" result="effect1_dropShadow_0_324"/>
<feBlend mode="normal" in="SourceGraphic" in2="effect1_dropShadow_0_324" result="shape"/>
<feColorMatrix in="SourceAlpha" type="matrix" values="0 0 0 0 0 0 0 0 0 0 0 0 0 0 0 0 0 0 127 0" result="hardAlpha"/>
<feOffset dx="0.3" dy="0.3"/>
<feGaussianBlur stdDeviation="0.3"/>
<feComposite in2="hardAlpha" operator="arithmetic" k2="-1" k3="1"/>
<feColorMatrix type="matrix" values="0 0 0 0 0.796078 0 0 0 0 0.141176 0 0 0 0 0.223529 0 0 0 1 0"/>
<feBlend mode="normal" in2="shape" result="effect2_innerShadow_0_324"/>
</filter>
<filter id="filter3_i_0_324" x="21.0312" y="9.58875" width="2.78131" height="2.67603" filterUnits="userSpaceOnUse" color-interpolation-filters="sRGB">
<feFlood flood-opacity="0" result="BackgroundImageFix"/>
<feBlend mode="normal" in="SourceGraphic" in2="BackgroundImageFix" result="shape"/>
<feColorMatrix in="SourceAlpha" type="matrix" values="0 0 0 0 0 0 0 0 0 0 0 0 0 0 0 0 0 0 127 0" result="hardAlpha"/>
<feOffset/>
<feGaussianBlur stdDeviation="0.125"/>
<feComposite in2="hardAlpha" operator="arithmetic" k2="-1" k3="1"/>
<feColorMatrix type="matrix" values="0 0 0 0 0.756863 0 0 0 0 0.619608 0 0 0 0 0.321569 0 0 0 1 0"/>
<feBlend mode="normal" in2="shape" result="effect1_innerShadow_0_324"/>
</filter>
<filter id="filter4_di_0_324" x="11.8203" y="19.108" width="7.43582" height="7.43579" filterUnits="userSpaceOnUse" color-interpolation-filters="sRGB">
<feFlood flood-opacity="0" result="BackgroundImageFix"/>
<feColorMatrix in="SourceAlpha" type="matrix" values="0 0 0 0 0 0 0 0 0 0 0 0 0 0 0 0 0 0 127 0" result="hardAlpha"/>
<feOffset dx="-0.5" dy="0.5"/>
<feGaussianBlur stdDeviation="0.625"/>
<feComposite in2="hardAlpha" operator="out"/>
<feColorMatrix type="matrix" values="0 0 0 0 0.937255 0 0 0 0 0.443137 0 0 0 0 0.376471 0 0 0 1 0"/>
<feBlend mode="normal" in2="BackgroundImageFix" result="effect1_dropShadow_0_324"/>
<feBlend mode="normal" in="SourceGraphic" in2="effect1_dropShadow_0_324" result="shape"/>
<feColorMatrix in="SourceAlpha" type="matrix" values="0 0 0 0 0 0 0 0 0 0 0 0 0 0 0 0 0 0 127 0" result="hardAlpha"/>
<feOffset dx="0.75" dy="-0.75"/>
<feGaussianBlur stdDeviation="0.75"/>
<feComposite in2="hardAlpha" operator="arithmetic" k2="-1" k3="1"/>
<feColorMatrix type="matrix" values="0 0 0 0 0.313726 0 0 0 0 0.384314 0 0 0 0 1 0 0 0 1 0"/>
<feBlend mode="normal" in2="shape" result="effect2_innerShadow_0_324"/>
</filter>
<filter id="filter5_f_0_324" x="16.0519" y="9.1274" width="11.4756" height="7.09761" filterUnits="userSpaceOnUse" color-interpolation-filters="sRGB">
<feFlood flood-opacity="0" result="BackgroundImageFix"/>
<feBlend mode="normal" in="SourceGraphic" in2="BackgroundImageFix" result="shape"/>
<feGaussianBlur stdDeviation="0.075" result="effect1_foregroundBlur_0_324"/>
</filter>
<radialGradient id="paint0_radial_0_324" cx="0" cy="0" r="1" gradientUnits="userSpaceOnUse" gradientTransform="translate(5.3789 23.2469) rotate(-103.54) scale(1.75182 2.1567)">
<stop stop-color="#395DE0"/>
<stop offset="1" stop-color="#2C68A3"/>
</radialGradient>
<radialGradient id="paint1_radial_0_324" cx="0" cy="0" r="1" gradientUnits="userSpaceOnUse" gradientTransform="translate(27.5937 20.9813) rotate(108.743) scale(2.99062 2.99062)">
<stop offset="0.248616" stop-color="#3DB3F3"/>
<stop offset="1" stop-color="#5B73F4"/>
</radialGradient>
<radialGradient id="paint2_radial_0_324" cx="0" cy="0" r="1" gradientUnits="userSpaceOnUse" gradientTransform="translate(28.0937 21.6532) rotate(161.162) scale(1.4033 0.889718)">
<stop offset="0.257996" stop-color="#5FBEFF"/>
<stop offset="1" stop-color="#5FBEFF" stop-opacity="0"/>
</radialGradient>
<radialGradient id="paint3_radial_0_324" cx="0" cy="0" r="1" gradientUnits="userSpaceOnUse" gradientTransform="translate(8.65625 13.5594) rotate(15.9454) scale(3.18505 7.94974)">
<stop stop-color="#FBC96E"/>
<stop offset="1" stop-color="#FAC567"/>
</radialGradient>
<radialGradient id="paint4_radial_0_324" cx="0" cy="0" r="1" gradientUnits="userSpaceOnUse" gradientTransform="translate(10.5312 14.2469) rotate(-156.753) scale(2.41481 7.26267)">
<stop offset="0.765376" stop-color="#D89F3A" stop-opacity="0"/>
<stop offset="0.91124" stop-color="#DAA139"/>
</radialGradient>
<radialGradient id="paint5_radial_0_324" cx="0" cy="0" r="1" gradientUnits="userSpaceOnUse" gradientTransform="translate(23.875 15.4969) rotate(-125.455) scale(2.53202 2.59683)">
<stop offset="0.254227" stop-color="#BF812A"/>
<stop offset="1" stop-color="#CE9333"/>
</radialGradient>
<radialGradient id="paint6_radial_0_324" cx="0" cy="0" r="1" gradientUnits="userSpaceOnUse" gradientTransform="translate(21.9219 14.2626) rotate(-23.0913) scale(2.19118 5.70837)">
<stop offset="0.734364" stop-color="#E9BB61" stop-opacity="0"/>
<stop offset="0.929116" stop-color="#E9BB61"/>
</radialGradient>
<radialGradient id="paint7_radial_0_324" cx="0" cy="0" r="1" gradientUnits="userSpaceOnUse" gradientTransform="translate(23.2188 14.8876) rotate(-142.922) scale(3.4469 5.81507)">
<stop offset="0.772711" stop-color="#C18739" stop-opacity="0"/>
<stop offset="0.948485" stop-color="#C18739"/>
</radialGradient>
<linearGradient id="paint8_linear_0_324" x1="23.2057" y1="20.5799" x2="5.5403" y2="24.7001" gradientUnits="userSpaceOnUse">
<stop stop-color="#FFBC5D"/>
<stop offset="0.303505" stop-color="#FCAD6A"/>
<stop offset="1" stop-color="#CB7547"/>
</linearGradient>
<radialGradient id="paint9_radial_0_324" cx="0" cy="0" r="1" gradientUnits="userSpaceOnUse" gradientTransform="translate(12.1326 31.8589) rotate(-69.4212) scale(11.0026 21.4146)">
<stop stop-color="#F67B4E"/>
<stop offset="1" stop-color="#F67B4E" stop-opacity="0"/>
</radialGradient>
<linearGradient id="paint10_linear_0_324" x1="5.28125" y1="24.2782" x2="8" y2="23.7157" gradientUnits="userSpaceOnUse">
<stop stop-color="#C2794C"/>
<stop offset="1" stop-color="#E07648" stop-opacity="0"/>
</linearGradient>
<linearGradient id="paint11_linear_0_324" x1="26.625" y1="26.0282" x2="22" y2="24.9657" gradientUnits="userSpaceOnUse">
<stop offset="0.128534" stop-color="#FFBB5B"/>
<stop offset="1" stop-color="#FFBB5B" stop-opacity="0"/>
</linearGradient>
<linearGradient id="paint12_linear_0_324" x1="17.4375" y1="28.8719" x2="17.4375" y2="27.6844" gradientUnits="userSpaceOnUse">
<stop offset="0.184212" stop-color="#FF6F8C"/>
<stop offset="1" stop-color="#FF7A6A" stop-opacity="0"/>
</linearGradient>
<radialGradient id="paint13_radial_0_324" cx="0" cy="0" r="1" gradientUnits="userSpaceOnUse" gradientTransform="translate(28.0625 12.4032) rotate(113.385) scale(2.51945 2.08843)">
<stop offset="0.377231" stop-color="#DD9049"/>
<stop offset="1" stop-color="#F8BF60" stop-opacity="0"/>
</radialGradient>
<radialGradient id="paint14_radial_0_324" cx="0" cy="0" r="1" gradientUnits="userSpaceOnUse" gradientTransform="translate(4.04688 12.5438) rotate(64.2171) scale(2.04759 1.11998)">
<stop offset="0.195602" stop-color="#D7783D"/>
<stop offset="1" stop-color="#D7783D" stop-opacity="0"/>
</radialGradient>
<radialGradient id="paint15_radial_0_324" cx="0" cy="0" r="1" gradientUnits="userSpaceOnUse" gradientTransform="translate(16 8.83289) rotate(76.0568) scale(1.1672 2.55602)">
<stop offset="0.382465" stop-color="#D48C33"/>
<stop offset="1" stop-color="#FEB16A" stop-opacity="0"/>
</radialGradient>
<radialGradient id="paint16_radial_0_324" cx="0" cy="0" r="1" gradientUnits="userSpaceOnUse" gradientTransform="translate(22.0312 23.0595) rotate(-51.5819) scale(2.31334 1.4927)">
<stop stop-color="#FF196C"/>
<stop offset="1" stop-color="#FF1F4A"/>
</radialGradient>
<radialGradient id="paint17_radial_0_324" cx="0" cy="0" r="1" gradientUnits="userSpaceOnUse" gradientTransform="translate(23.625 21.8407) rotate(149.744) scale(1.73656 1.09996)">
<stop offset="0.222789" stop-color="#FF5873"/>
<stop offset="1" stop-color="#FF5873" stop-opacity="0"/>
</radialGradient>
<radialGradient id="paint18_radial_0_324" cx="0" cy="0" r="1" gradientUnits="userSpaceOnUse" gradientTransform="translate(9.81259 23.122) rotate(-104.281) scale(1.77356 1.69812)">
<stop stop-color="#F6196C"/>
<stop offset="1" stop-color="#E42047"/>
</radialGradient>
<radialGradient id="paint19_radial_0_324" cx="0" cy="0" r="1" gradientUnits="userSpaceOnUse" gradientTransform="translate(10.547 22.0439) rotate(155.726) scale(0.874163 0.765693)">
<stop stop-color="#FE536F"/>
<stop offset="1" stop-color="#FE536F" stop-opacity="0"/>
</radialGradient>
<radialGradient id="paint20_radial_0_324" cx="0" cy="0" r="1" gradientUnits="userSpaceOnUse" gradientTransform="translate(4.65626 10.9745) rotate(135.198) scale(2.97287 3.09287)">
<stop offset="0.172433" stop-color="#E7C04E"/>
<stop offset="1" stop-color="#D9972A"/>
</radialGradient>
<radialGradient id="paint21_radial_0_324" cx="0" cy="0" r="1" gradientUnits="userSpaceOnUse" gradientTransform="translate(3.21876 13.4969) rotate(-71.3305) scale(1.65959 1.79772)">
<stop offset="0.0645976" stop-color="#DF8089"/>
<stop offset="1" stop-color="#DF8089" stop-opacity="0"/>
</radialGradient>
<radialGradient id="paint22_radial_0_324" cx="0" cy="0" r="1" gradientUnits="userSpaceOnUse" gradientTransform="translate(4.76563 11.0395) rotate(141.017) scale(1.40706 0.727129)">
<stop stop-color="#FFDE71"/>
<stop offset="1" stop-color="#FFDE71" stop-opacity="0"/>
</radialGradient>
<radialGradient id="paint23_radial_0_324" cx="0" cy="0" r="1" gradientUnits="userSpaceOnUse" gradientTransform="translate(4.01563 12.0139) rotate(180) scale(1.875 1.94872)">
<stop offset="0.487603" stop-color="#E1AD3D" stop-opacity="0"/>
<stop offset="1" stop-color="#B9894B"/>
</radialGradient>
<radialGradient id="paint24_radial_0_324" cx="0" cy="0" r="1" gradientUnits="userSpaceOnUse" gradientTransform="translate(10.7031 10.0126) rotate(136.302) scale(2.91757 3.03227)">
<stop offset="0.172433" stop-color="#E7C04E"/>
<stop offset="1" stop-color="#D9972A"/>
</radialGradient>
<radialGradient id="paint25_radial_0_324" cx="0" cy="0" r="1" gradientUnits="userSpaceOnUse" gradientTransform="translate(10.8125 10.0751) rotate(142.093) scale(1.38624 0.710131)">
<stop stop-color="#FFDE71"/>
<stop offset="1" stop-color="#FFDE71" stop-opacity="0"/>
</radialGradient>
<radialGradient id="paint26_radial_0_324" cx="0" cy="0" r="1" gradientUnits="userSpaceOnUse" gradientTransform="translate(9.57813 12.4344) rotate(-76.7989) scale(1.29998 1.7338)">
<stop stop-color="#E4A122"/>
<stop offset="1" stop-color="#E4A122" stop-opacity="0"/>
</radialGradient>
<radialGradient id="paint27_radial_0_324" cx="0" cy="0" r="1" gradientUnits="userSpaceOnUse" gradientTransform="translate(10.0625 11.0126) rotate(180) scale(1.875)">
<stop offset="0.487603" stop-color="#E1AD3D" stop-opacity="0"/>
<stop offset="1" stop-color="#B9894B"/>
</radialGradient>
<radialGradient id="paint28_radial_0_324" cx="0" cy="0" r="1" gradientUnits="userSpaceOnUse" gradientTransform="translate(23.4688 10.4657) rotate(136.32) scale(2.39817 2.49246)">
<stop offset="0.172433" stop-color="#F0C950"/>
<stop offset="1" stop-color="#C8861F"/>
</radialGradient>
<radialGradient id="paint29_radial_0_324" cx="0" cy="0" r="1" gradientUnits="userSpaceOnUse" gradientTransform="translate(23.6719 10.2001) rotate(147.14) scale(1.33929 0.68608)">
<stop offset="0.183948" stop-color="#FFDE71"/>
<stop offset="1" stop-color="#FFDE71" stop-opacity="0"/>
</radialGradient>
<radialGradient id="paint30_radial_0_324" cx="0" cy="0" r="1" gradientUnits="userSpaceOnUse" gradientTransform="translate(17.1251 21.5595) rotate(138.155) scale(2.81059)">
<stop stop-color="#5FBFFF"/>
<stop offset="1" stop-color="#3E94FF"/>
</radialGradient>
<linearGradient id="paint31_linear_0_324" x1="16.2109" y1="9.1532" x2="22.5547" y2="17.1532" gradientUnits="userSpaceOnUse">
<stop stop-color="#FFD678"/>
<stop offset="1" stop-color="#FFD678" stop-opacity="0"/>
</linearGradient>
<radialGradient id="paint32_radial_0_324" cx="0" cy="0" r="1" gradientUnits="userSpaceOnUse" gradientTransform="translate(22.5547 16.3719) rotate(-34.6679) scale(6.49725 1.74022)">
<stop offset="0.289296" stop-color="#FFD175"/>
<stop offset="1" stop-color="#FFD175" stop-opacity="0"/>
</radialGradient>
<radialGradient id="paint33_radial_0_324" cx="0" cy="0" r="1" gradientUnits="userSpaceOnUse" gradientTransform="translate(17.4375 6.65319) rotate(125.606) scale(3.43521 2.91657)">
<stop offset="0.376296" stop-color="#F3D154"/>
<stop offset="1" stop-color="#CC9848"/>
</radialGradient>
<radialGradient id="paint34_radial_0_324" cx="0" cy="0" r="1" gradientUnits="userSpaceOnUse" gradientTransform="translate(15.6562 9.44616) rotate(-79.3128) scale(1.83257 2.17841)">
<stop stop-color="#E78F5E"/>
<stop offset="1" stop-color="#E78F5E" stop-opacity="0"/>
</radialGradient>
<radialGradient id="paint35_radial_0_324" cx="0" cy="0" r="1" gradientUnits="userSpaceOnUse" gradientTransform="translate(16.75 8.24694) rotate(-146.725) scale(3.58831 4.29179)">
<stop offset="0.557117" stop-color="#E9C251" stop-opacity="0"/>
<stop offset="1" stop-color="#B49858"/>
</radialGradient>
<radialGradient id="paint36_radial_0_324" cx="0" cy="0" r="1" gradientUnits="userSpaceOnUse" gradientTransform="translate(18.0625 6.84069) rotate(156.06) scale(1.9831 1.52608)">
<stop stop-color="#FFED77"/>
<stop offset="1" stop-color="#FFED77" stop-opacity="0"/>
</radialGradient>
<radialGradient id="paint37_radial_0_324" cx="0" cy="0" r="1" gradientUnits="userSpaceOnUse" gradientTransform="translate(29.6563 10.9745) rotate(135.198) scale(2.97287 3.09287)">
<stop offset="0.172433" stop-color="#F8CB54"/>
<stop offset="1" stop-color="#EAA34B"/>
</radialGradient>
<radialGradient id="paint38_radial_0_324" cx="0" cy="0" r="1" gradientUnits="userSpaceOnUse" gradientTransform="translate(28.2187 13.4969) rotate(-71.3305) scale(1.65959 2.24326)">
<stop offset="0.159577" stop-color="#F1907C"/>
<stop offset="1" stop-color="#F1907C" stop-opacity="0"/>
</radialGradient>
<radialGradient id="paint39_radial_0_324" cx="0" cy="0" r="1" gradientUnits="userSpaceOnUse" gradientTransform="translate(29.7656 11.0395) rotate(141.017) scale(1.40706 0.727129)">
<stop stop-color="#FFDE71"/>
<stop offset="1" stop-color="#FFDE71" stop-opacity="0"/>
</radialGradient>
<radialGradient id="paint40_radial_0_324" cx="0" cy="0" r="1" gradientUnits="userSpaceOnUse" gradientTransform="translate(29.0156 12.0139) rotate(180) scale(1.875 1.94872)">
<stop offset="0.487603" stop-color="#E0A444" stop-opacity="0"/>
<stop offset="1" stop-color="#C6924D"/>
</radialGradient>
</defs>
</svg>
