<svg width="18" height="18" viewBox="0 0 18 18" fill="none" xmlns="http://www.w3.org/2000/svg">
<path d="M2.48936 11.9492L3.48374 10.1299C3.76146 9.62336 4.48958 9.62336 4.76626 10.1299L5.76064 11.9492C5.82721 12.0719 5.92811 12.1728 6.05085 12.2393L7.87008 13.2337C8.37664 13.5115 8.37664 14.2396 7.87008 14.5163L6.05085 15.5107C5.92811 15.5772 5.82721 15.6781 5.76064 15.8008L4.76626 17.6201C4.48854 18.1266 3.76042 18.1266 3.48374 17.6201L2.48936 15.8008C2.42279 15.6781 2.32189 15.5772 2.19915 15.5107L0.379917 14.5163C-0.126639 14.2385 -0.126639 13.5104 0.379917 13.2337L2.19915 12.2393C2.32189 12.1728 2.42279 12.0719 2.48936 11.9492Z" fill="white"/>
<path d="M1.63377 1.44575L2.28639 0.249762C2.46866 -0.0832541 2.94653 -0.0832541 3.12812 0.249762L3.78073 1.44575C3.82442 1.52644 3.89064 1.59275 3.9712 1.63652L5.16517 2.29025C5.49762 2.47282 5.49762 2.9515 5.16517 3.13339L3.9712 3.78712C3.89064 3.83088 3.82442 3.8972 3.78073 3.97789L3.12812 5.17388C2.94585 5.50689 2.46798 5.50689 2.28639 5.17388L1.63377 3.97789C1.59008 3.8972 1.52386 3.83088 1.44331 3.78712L0.249341 3.13339C-0.0831137 2.95081 -0.0831137 2.47214 0.249341 2.29025L1.44331 1.63652C1.52386 1.59275 1.59008 1.52644 1.63377 1.44575Z" fill="white"/>
<path d="M10.6683 4.29893L11.9339 1.98353C12.2873 1.33882 13.214 1.33882 13.5661 1.98353L14.8317 4.29893C14.9165 4.45514 15.0449 4.58352 15.2011 4.66825L17.5165 5.93385C18.1612 6.28731 18.1612 7.21401 17.5165 7.56615L15.2011 8.83175C15.0449 8.91648 14.9165 9.04486 14.8317 9.20107L13.5661 11.5165C13.2127 12.1612 12.286 12.1612 11.9339 11.5165L10.6683 9.20107C10.5835 9.04486 10.4551 8.91648 10.2989 8.83175L7.98353 7.56615C7.33882 7.21269 7.33882 6.28599 7.98353 5.93385L10.2989 4.66825C10.4551 4.58352 10.5835 4.45514 10.6683 4.29893Z" fill="white"/>
</svg>
